<?xml version="1.0" standalone="no"?>
<!DOCTYPE svg PUBLIC "-//W3C//DTD SVG 1.1//EN" "http://www.w3.org/Graphics/SVG/1.1/DTD/svg11.dtd" >
<svg xmlns="http://www.w3.org/2000/svg" xmlns:xlink="http://www.w3.org/1999/xlink" version="1.1">
<metadata>
Created by FontForge 20170731 at Tue Jul  4 01:30:53 2023
 By Aleksey,,,
Copyright AngelloENF2 2023
</metadata>
<defs>
<font id="Minecraftfivebold" horiz-adv-x="2194" >
  <font-face 
    font-family="Minecraft five bold"
    font-weight="400"
    font-stretch="normal"
    units-per-em="2048"
    panose-1="0 0 4 0 0 0 0 0 0 0"
    ascent="2048"
    descent="0"
    x-height="2048"
    cap-height="2048"
    bbox="0 -512 2252 2457"
    underline-thickness="102"
    underline-position="51"
    unicode-range="U+0020-20AC"
  />
<missing-glyph horiz-adv-x="1677" 
d="M1506 50l-719 954l-718 -954h1437zM50 69l718 955l-718 954v-1909zM1525 69v1909l-719 -954zM787 1043l719 955h-1437zM0 0v2048h1575v-2048h-1575z" />
    <glyph glyph-name=".notdef" horiz-adv-x="1677" 
d="M1506 50l-719 954l-718 -954h1437zM50 69l718 955l-718 954v-1909zM1525 69v1909l-719 -954zM787 1043l719 955h-1437zM0 0v2048h1575v-2048h-1575z" />
    <glyph glyph-name=".null" horiz-adv-x="0" 
 />
    <glyph glyph-name="nonmarkingreturn" horiz-adv-x="682" 
 />
    <glyph glyph-name="space" unicode=" " horiz-adv-x="1375" 
d="M1228 1996q0 21 -15 37q-15 15 -36 15h51v-52z" />
    <glyph glyph-name="exclam" unicode="!" horiz-adv-x="658" 
d="M0 0v512h512v-512h-512zM0 716v1332h512v-1332h-512z" />
    <glyph glyph-name="quotedbl" unicode="&#x22;" horiz-adv-x="1272" 
d="M0 1024v1228h512v-1228h-512zM614 1024v1228h512v-1228h-512z" />
    <glyph glyph-name="numbersign" unicode="#" horiz-adv-x="2296" 
d="M1228 921v256h-307v-256h307zM409 0v358h-409v563h409v256h-409v563h409v308h512v-308h307v308h512v-308h410v-563h-410v-256h410v-563h-410v-358h-512v358h-307v-358h-512z" />
    <glyph glyph-name="dollar" unicode="$" 
d="M768 -409v409h-768v512h1536v256h-1024v358h-512v512h512v410h256v409h512v-409h768v-512h-1536v-256h1024v-359h512v-512h-512v-409h-256v-409h-512z" />
    <glyph glyph-name="percent" unicode="%" 
d="M1536 0v512h512v-512h-512zM0 1536v512h512v-512h-512zM0 0v512h409v409h359v359h358v358h410v410h512v-512h-410v-410h-358v-358h-359v-359h-409v-409h-512z" />
    <glyph glyph-name="ampersand" unicode="&#x26;" horiz-adv-x="2092" 
d="M1024 512v256h-512v-256h512zM1433 921v205h-409v-205h409zM1024 1280v256h-512v-256h512zM512 0v409h-512v512h512v205h-512v512h512v410h512v-410h512v-358h409v-512h-409v-256h409v-512h-512v409h-409v-409h-512z" />
    <glyph glyph-name="quotesingle" unicode="'" horiz-adv-x="658" 
d="M0 1024v1228h512v-1228h-512z" />
    <glyph glyph-name="parenleft" unicode="(" horiz-adv-x="1068" 
d="M409 0v409h-409v1229h409v410h512v-512h-409v-1024h409v-512h-512z" />
    <glyph glyph-name="parenright" unicode=")" horiz-adv-x="1068" 
d="M0 0v512h409v1024h-409v512h512v-410h409v-1229h-409v-409h-512z" />
    <glyph glyph-name="asterisk" unicode="*" horiz-adv-x="1375" 
d="M0 819v512h358v205h-358v512h512v-359h204v359h512v-512h-358v-205h358v-512h-512v358h-204v-358h-512z" />
    <glyph glyph-name="plus" unicode="+" horiz-adv-x="1887" 
d="M768 358v410h-410v512h410v409h512v-409h409v-512h-409v-410h-512z" />
    <glyph glyph-name="comma" unicode="," horiz-adv-x="658" 
d="M0 -512v1024h512v-1024h-512z" />
    <glyph glyph-name="hyphen" unicode="-" horiz-adv-x="1887" 
d="M358 768v512h51v51h1229v-51h51v-512h-1331z" />
    <glyph glyph-name="period" unicode="." horiz-adv-x="658" 
d="M0 0v512h512v-512h-512z" />
    <glyph glyph-name="slash" unicode="/" 
d="M0 0v512h409v409h359v359h358v358h410v410h512v-512h-410v-410h-358v-358h-359v-359h-409v-409h-512z" />
    <glyph glyph-name="zero" unicode="0" 
d="M768 768v512h512v-512h-512zM1536 512v1024h-1024v-1024h1024zM512 0v409h-512v1229h512v410h1024v-410h512v-1229h-512v-409h-1024z" />
    <glyph glyph-name="one" unicode="1" horiz-adv-x="1477" 
d="M0 0v512h460v614h-460v512h460v410h410v-1536h461v-512h-1331z" />
    <glyph glyph-name="two" unicode="2" 
d="M0 0v921h512v359h1024v256h-1536v512h1536v-410h512v-512h-512v-358h-1024v-256h1536v-512h-2048z" />
    <glyph glyph-name="three" unicode="3" 
d="M0 0v512h1536v256h-1024v512h1024v256h-1536v512h1536v-410h512v-512h-512v-205h512v-512h-512v-409h-1536z" />
    <glyph glyph-name="four" unicode="4" horiz-adv-x="1989" 
d="M1024 1024v512h-205v-308h-307v-204h512zM1024 0v512h-1024v819h307v409h307v308h922v-1024h307v-512h-307v-512h-512z" />
    <glyph glyph-name="five" unicode="5" 
d="M0 0v512h1536v256h-1536v1280h1536v-512h-1024v-256h1024v-359h512v-512h-512v-409h-1536z" />
    <glyph glyph-name="six" unicode="6" 
d="M1536 512v256h-1024v-256h1024zM512 0v409h-512v1229h512v410h1024v-512h-1024v-256h1024v-359h512v-512h-512v-409h-1024z" />
    <glyph glyph-name="seven" unicode="7" 
d="M768 0v870h358v358h410v308h-1536v512h2048v-922h-410v-410h-358v-716h-512z" />
    <glyph glyph-name="eight" unicode="8" 
d="M1536 512v204h-1024v-204h1024zM1536 1280v256h-1024v-256h1024zM512 0v409h-512v512h512v205h-512v512h512v410h1024v-410h512v-512h-512v-205h512v-512h-512v-409h-1024z" />
    <glyph glyph-name="nine" unicode="9" 
d="M1536 1280v256h-1024v-256h1024zM512 0v512h1024v256h-1024v358h-512v512h512v410h1024v-410h512v-1229h-512v-409h-1024z" />
    <glyph glyph-name="colon" unicode=":" horiz-adv-x="658" 
d="M0 0v512h512v-512h-512zM0 1024v512h512v-512h-512z" />
    <glyph glyph-name="semicolon" unicode=";" horiz-adv-x="658" 
d="M0 -512v1024h512v-1024h-512zM0 1024v512h512v-512h-512z" />
    <glyph glyph-name="less" unicode="&#x3c;" horiz-adv-x="1477" 
d="M819 0v409h-410v359h-358v512h358v358h410v410h512v-512h-410v-410h-358v-205h358v-409h410v-512h-512z" />
    <glyph glyph-name="equal" unicode="=" horiz-adv-x="1580" 
d="M0 409v512h1433v-512h-1433zM0 1126v512h1433v-512h-1433z" />
    <glyph glyph-name="greater" unicode="&#x3e;" horiz-adv-x="1477" 
d="M0 0v512h409v409h359v205h-359v410h-409v512h512v-410h409v-358h359v-512h-359v-359h-409v-409h-512z" />
    <glyph glyph-name="question" unicode="?" 
d="M768 0v512h512v-512h-512zM768 768v512h768v256h-1024v-410h-512v512h512v410h1024v-410h512v-512h-512v-358h-768z" />
    <glyph glyph-name="at" unicode="@" horiz-adv-x="2399" 
d="M512 -512v512h1228v-512h-1228zM0 0v1536h512v409h1228v-409h512v-1332h-1433v1024h717v-307h-205v-205h409v717h-1228v-1433h-512z" />
    <glyph glyph-name="A" unicode="A" 
d="M1536 1024v512h-1024v-512h1024zM0 0v1638h512v410h1024v-410h512v-1638h-512v512h-1024v-512h-512z" />
    <glyph glyph-name="B" unicode="B" 
d="M1536 512v256h-1024v-256h1024zM1536 1280v256h-1024v-256h1024zM0 0v2048h1536v-410h512v-512h-512v-205h512v-512h-512v-409h-1536z" />
    <glyph glyph-name="C" unicode="C" 
d="M512 0v409h-512v1229h512v410h1024v-410h512v-512h-512v410h-1024v-1024h1024v409h512v-512h-512v-409h-1024z" />
    <glyph glyph-name="D" unicode="D" 
d="M1536 512v1024h-1024v-1024h1024zM0 0v2048h1536v-410h512v-1229h-512v-409h-1536z" />
    <glyph glyph-name="E" unicode="E" 
d="M0 0v2048h2048v-512h-1536v-256h819v-512h-819v-256h1536v-512h-2048z" />
    <glyph glyph-name="F" unicode="F" 
d="M0 0v2048h2048v-512h-1536v-256h819v-512h-819v-768h-512z" />
    <glyph glyph-name="G" unicode="G" 
d="M512 0v409h-512v1229h512v410h1536v-512h-1536v-1024h1024v256h-410v512h922v-1280h-1536z" />
    <glyph glyph-name="H" unicode="H" 
d="M0 0v2048h512v-768h1024v768h512v-2048h-512v768h-1024v-768h-512z" />
    <glyph glyph-name="I" unicode="I" horiz-adv-x="1477" 
d="M0 0v512h460v1024h-460v512h1331v-512h-461v-1024h461v-512h-1331z" />
    <glyph glyph-name="J" unicode="J" 
d="M512 0v409h-512v512h512v-409h1024v1024h-1024v512h1536v-1639h-512v-409h-1024z" />
    <glyph glyph-name="K" unicode="K" 
d="M0 0v2048h512v-768h614v358h410v410h512v-512h-410v-410h-358v-205h358v-409h410v-512h-512v409h-410v359h-614v-768h-512z" />
    <glyph glyph-name="L" unicode="L" 
d="M0 0v2048h512v-1536h1536v-512h-2048z" />
    <glyph glyph-name="M" unicode="M" 
d="M0 0v2048h512v-410h409v-358h205v358h410v410h512v-2048h-512v1126h-256v-358h-512v358h-256v-1126h-512z" />
    <glyph glyph-name="N" unicode="N" 
d="M0 0v2048h512v-410h409v-358h359v-359h256v1127h512v-2048h-512v409h-410v359h-358v358h-256v-1126h-512z" />
    <glyph glyph-name="O" unicode="O" 
d="M1536 512v1024h-1024v-1024h1024zM512 0v409h-512v1229h512v410h1024v-410h512v-1229h-512v-409h-1024z" />
    <glyph glyph-name="P" unicode="P" 
d="M1536 1280v256h-1024v-256h1024zM0 0v2048h1536v-410h512v-512h-512v-358h-1024v-768h-512z" />
    <glyph glyph-name="Q" unicode="Q" 
d="M1126 512v409h410v615h-1024v-1024h614zM512 0v409h-512v1229h512v410h1024v-410h512v-819h-410v-307h410v-512h-512v409h-308v-409h-716z" />
    <glyph glyph-name="R" unicode="R" 
d="M1536 1280v256h-1024v-256h1024zM0 0v2048h1536v-410h512v-512h-512v-205h512v-921h-512v768h-1024v-768h-512z" />
    <glyph glyph-name="S" unicode="S" 
d="M0 0v512h1536v256h-1024v358h-512v512h512v410h1536v-512h-1536v-256h1024v-359h512v-512h-512v-409h-1536z" />
    <glyph glyph-name="T" unicode="T" 
d="M768 0v1536h-768v512h2048v-512h-768v-1536h-512z" />
    <glyph glyph-name="U" unicode="U" 
d="M512 0v409h-512v1639h512v-1536h1024v1536h512v-1639h-512v-409h-1024z" />
    <glyph glyph-name="V" unicode="V" 
d="M768 0v307h-359v409h-409v1332h512v-1229h409v-307h205v307h410v1229h512v-1332h-410v-409h-358v-307h-512z" />
    <glyph glyph-name="W" unicode="W" 
d="M0 0v2048h512v-1127h256v359h512v-359h256v1127h512v-2048h-512v409h-410v307h-205v-307h-409v-409h-512z" />
    <glyph glyph-name="X" unicode="X" 
d="M0 0v512h409v409h359v205h-359v410h-409v512h512v-410h409v-358h205v358h410v410h512v-512h-410v-410h-358v-205h358v-409h410v-512h-512v409h-410v359h-205v-359h-409v-409h-512z" />
    <glyph glyph-name="Y" unicode="Y" 
d="M768 0v1126h-359v410h-409v512h512v-410h409v-358h205v358h410v410h512v-512h-410v-410h-358v-1126h-512z" />
    <glyph glyph-name="Z" unicode="Z" 
d="M0 0v512h409v409h359v359h358v256h-1126v512h2048v-512h-410v-410h-358v-358h-359v-256h1127v-512h-2048z" />
    <glyph glyph-name="bracketleft" unicode="[" horiz-adv-x="1068" 
d="M0 0v2048h921v-512h-409v-1024h409v-512h-921z" />
    <glyph glyph-name="backslash" unicode="\" 
d="M1536 0v409h-410v359h-358v358h-359v410h-409v512h512v-410h409v-358h359v-359h358v-409h410v-512h-512z" />
    <glyph glyph-name="bracketright" unicode="]" horiz-adv-x="1068" 
d="M0 0v512h409v1024h-409v512h921v-2048h-921z" />
    <glyph glyph-name="asciicircum" unicode="^" horiz-adv-x="1477" 
d="M0 1126v512h409v410h512v-410h410v-512h-512v410h-307v-410h-512z" />
    <glyph glyph-name="underscore" unicode="_" 
d="M0 0v512h2048v-512h-2048z" />
    <glyph glyph-name="grave" unicode="`" horiz-adv-x="1170" 
d="M512 1024v204h-103v205h-102v205h-103v205h-102v205h-102v204h512v-204h102v-205h102v-205h103v-205h102v-205h103v-204h-512z" />
    <glyph glyph-name="a" unicode="a" 
d="M1536 1024v512h-1024v-512h1024zM0 0v1638h512v410h1024v-410h512v-1638h-512v512h-1024v-512h-512z" />
    <glyph glyph-name="b" unicode="b" 
d="M1536 512v256h-1024v-256h1024zM1536 1280v256h-1024v-256h1024zM0 0v2048h1536v-410h512v-512h-512v-205h512v-512h-512v-409h-1536z" />
    <glyph glyph-name="c" unicode="c" 
d="M512 0v409h-512v1229h512v410h1024v-410h512v-512h-512v410h-1024v-1024h1024v409h512v-512h-512v-409h-1024z" />
    <glyph glyph-name="d" unicode="d" 
d="M1536 512v1024h-1024v-1024h1024zM0 0v2048h1536v-410h512v-1229h-512v-409h-1536z" />
    <glyph glyph-name="e" unicode="e" 
d="M0 0v2048h2048v-512h-1536v-256h819v-512h-819v-256h1536v-512h-2048z" />
    <glyph glyph-name="f" unicode="f" 
d="M0 0v2048h2048v-512h-1536v-256h819v-512h-819v-768h-512z" />
    <glyph glyph-name="g" unicode="g" 
d="M512 0v409h-512v1229h512v410h1536v-512h-1536v-1024h1024v256h-410v512h922v-1280h-1536z" />
    <glyph glyph-name="h" unicode="h" 
d="M0 0v2048h512v-768h1024v768h512v-2048h-512v768h-1024v-768h-512z" />
    <glyph glyph-name="i" unicode="i" horiz-adv-x="1477" 
d="M0 0v512h460v1024h-460v512h1331v-512h-461v-1024h461v-512h-1331z" />
    <glyph glyph-name="j" unicode="j" 
d="M512 0v409h-512v512h512v-409h1024v1024h-1024v512h1536v-1639h-512v-409h-1024z" />
    <glyph glyph-name="k" unicode="k" 
d="M0 0v2048h512v-768h614v358h410v410h512v-512h-410v-410h-358v-205h358v-409h410v-512h-512v409h-410v359h-614v-768h-512z" />
    <glyph glyph-name="l" unicode="l" 
d="M0 0v2048h512v-1536h1536v-512h-2048z" />
    <glyph glyph-name="m" unicode="m" 
d="M0 0v2048h512v-410h409v-358h205v358h410v410h512v-2048h-512v1126h-256v-358h-512v358h-256v-1126h-512z" />
    <glyph glyph-name="n" unicode="n" 
d="M0 0v2048h512v-410h409v-358h359v-359h256v1127h512v-2048h-512v409h-410v359h-358v358h-256v-1126h-512z" />
    <glyph glyph-name="o" unicode="o" 
d="M1536 512v1024h-1024v-1024h1024zM512 0v409h-512v1229h512v410h1024v-410h512v-1229h-512v-409h-1024z" />
    <glyph glyph-name="p" unicode="p" 
d="M1536 1280v256h-1024v-256h1024zM0 0v2048h1536v-410h512v-512h-512v-358h-1024v-768h-512z" />
    <glyph glyph-name="q" unicode="q" 
d="M1126 512v409h410v615h-1024v-1024h614zM512 0v409h-512v1229h512v410h1024v-410h512v-819h-410v-307h410v-512h-512v409h-308v-409h-716z" />
    <glyph glyph-name="r" unicode="r" 
d="M1536 1280v256h-1024v-256h1024zM0 0v2048h1536v-410h512v-512h-512v-205h512v-921h-512v768h-1024v-768h-512z" />
    <glyph glyph-name="s" unicode="s" 
d="M0 0v512h1536v256h-1024v358h-512v512h512v410h1536v-512h-1536v-256h1024v-359h512v-512h-512v-409h-1536z" />
    <glyph glyph-name="t" unicode="t" 
d="M768 0v1536h-768v512h2048v-512h-768v-1536h-512z" />
    <glyph glyph-name="u" unicode="u" 
d="M512 0v409h-512v1639h512v-1536h1024v1536h512v-1639h-512v-409h-1024z" />
    <glyph glyph-name="v" unicode="v" 
d="M768 0v307h-359v409h-409v1332h512v-1229h409v-307h205v307h410v1229h512v-1332h-410v-409h-358v-307h-512z" />
    <glyph glyph-name="w" unicode="w" 
d="M0 0v2048h512v-1127h256v359h512v-359h256v1127h512v-2048h-512v409h-410v307h-205v-307h-409v-409h-512z" />
    <glyph glyph-name="x" unicode="x" 
d="M0 0v512h409v409h359v205h-359v410h-409v512h512v-410h409v-358h205v358h410v410h512v-512h-410v-410h-358v-205h358v-409h410v-512h-512v409h-410v359h-205v-359h-409v-409h-512z" />
    <glyph glyph-name="y" unicode="y" 
d="M768 0v1126h-359v410h-409v512h512v-410h409v-358h205v358h410v410h512v-512h-410v-410h-358v-1126h-512z" />
    <glyph glyph-name="z" unicode="z" 
d="M0 0v512h409v409h359v359h358v256h-1126v512h2048v-512h-410v-410h-358v-358h-359v-256h1127v-512h-2048z" />
    <glyph glyph-name="braceleft" unicode="{" horiz-adv-x="1477" 
d="M819 0v409h-410v359h-409v512h409v358h410v410h512v-512h-410v-1024h410v-512h-512z" />
    <glyph glyph-name="bar" unicode="|" horiz-adv-x="760" 
d="M51 0v2048h512v-2048h-512z" />
    <glyph glyph-name="braceright" unicode="}" horiz-adv-x="1477" 
d="M0 0v512h409v1024h-409v512h512v-410h409v-358h410v-512h-410v-359h-409v-409h-512z" />
    <glyph glyph-name="asciitilde" unicode="~" horiz-adv-x="1887" 
d="M0 1126v512h409v410h512v-410h307v410h512v-512h-409v-410h-512v410h-307v-410h-512z" />
    <glyph glyph-name="exclamdown" unicode="&#xa1;" horiz-adv-x="658" 
d="M0 0v1331h512v-1331h-512zM0 1536v512h512v-512h-512z" />
    <glyph glyph-name="cent" unicode="&#xa2;" horiz-adv-x="2092" 
d="M768 614v819h-256v-819h256zM768 0v102h-256v410h-512v1024h512v409h256v103h409v-103h256v-409h512v-410h-512v307h-256v-819h256v307h512v-409h-512v-410h-256v-102h-409z" />
    <glyph glyph-name="sterling" unicode="&#xa3;" 
d="M0 0v512h307v256h-307v512h307v358h512v410h1229v-512h-1229v-256h512v-512h-512v-256h1229v-512h-2048z" />
    <glyph glyph-name="yen" unicode="&#xa5;" 
d="M768 0v460h-359v512h359v154h-359v410h-409v512h512v-410h409v-307h205v307h410v410h512v-512h-410v-410h-358v-154h358v-512h-358v-460h-512z" />
    <glyph glyph-name="brokenbar" unicode="&#xa6;" horiz-adv-x="146" 
 />
    <glyph glyph-name="section" unicode="&#xa7;" 
d="M1536 870v205h-1024v-205h1024zM0 -102v409h1536v153h-1024v256h-512v512h512v103h-512v512h512v307h1536v-410h-1536v-256h1024v-256h512v-512h-512v-102h512v-512h-512v-204h-1536z" />
    <glyph glyph-name="dieresis" unicode="&#xa8;" horiz-adv-x="1272" 
d="M0 1536v512h512v-512h-512zM614 1536v512h512v-512h-512z" />
    <glyph glyph-name="guillemotleft" unicode="&#xab;" horiz-adv-x="2092" 
d="M409 409v359h-358v512h358v358h512v-512h-358v-205h358v-512h-512zM1433 409v359h-358v512h358v358h512v-512h-358v-205h358v-512h-512z" />
    <glyph glyph-name="logicalnot" unicode="&#xac;" 
d="M1638 409v410h-1638v409h2048v-819h-410z" />
    <glyph glyph-name="degree" unicode="&#xb0;" horiz-adv-x="1477" 
d="M921 1126v512h-512v-512h512zM409 716v308h-409v716h409v308h512v-308h410v-716h-410v-308h-512z" />
    <glyph glyph-name="plusminus" unicode="&#xb1;" horiz-adv-x="1887" 
d="M358 153v512h1331v-512h-1331zM768 768v409h-410v512h410v410h512v-410h409v-512h-409v-409h-512z" />
    <glyph glyph-name="paragraph" unicode="&#xb6;" 
d="M1126 1280v256h-614v-256h614zM1126 0v768h-614v358h-512v512h512v410h1536v-2048h-410v1740h-102v-1740h-410z" />
    <glyph glyph-name="periodcentered" unicode="&#xb7;" horiz-adv-x="658" 
d="M0 768v512h512v-512h-512z" />
    <glyph glyph-name="guillemotright" unicode="&#xbb;" horiz-adv-x="2092" 
d="M0 409v512h358v205h-358v512h512v-358h358v-512h-358v-359h-512zM1024 409v512h358v205h-358v512h512v-358h358v-512h-358v-359h-512z" />
    <glyph glyph-name="questiondown" unicode="&#xbf;" 
d="M512 0v409h-512v512h512v359h768v-564h-768v-204h1024v409h512v-512h-512v-409h-1024zM768 1536v512h512v-512h-512z" />
    <glyph glyph-name="divide" unicode="&#xf7;" horiz-adv-x="1887" 
d="M768 256v460h512v-460h-512zM358 768v512h1331v-512h-1331zM768 1331v461h512v-461h-512z" />
    <glyph glyph-name="quoteleft" unicode="&#x2018;" horiz-adv-x="1068" 
d="M0 819v819h409v410h512v-512h-409v-205h409v-512h-921z" />
    <glyph glyph-name="quoteright" unicode="&#x2019;" horiz-adv-x="1068" 
d="M0 819v512h409v205h-409v512h921v-820h-409v-409h-512z" />
    <glyph glyph-name="quotedblleft" unicode="&#x201c;" horiz-adv-x="2092" 
d="M0 819v819h409v410h512v-512h-409v-205h409v-512h-921zM1024 819v819h409v410h512v-512h-409v-205h409v-512h-921z" />
    <glyph glyph-name="quotedblright" unicode="&#x201d;" horiz-adv-x="2092" 
d="M0 819v512h409v205h-409v512h921v-820h-409v-409h-512zM1024 819v512h409v205h-409v512h921v-820h-409v-409h-512z" />
    <glyph glyph-name="bullet" unicode="&#x2022;" horiz-adv-x="760" 
d="M102 768v102h-102v410h102v102h410v-102h102v-410h-102v-102h-410z" />
    <glyph glyph-name="guilsinglleft" unicode="&#x2039;" horiz-adv-x="1068" 
d="M409 409v359h-358v512h358v358h512v-512h-358v-205h358v-512h-512z" />
    <glyph glyph-name="guilsinglright" unicode="&#x203a;" horiz-adv-x="1068" 
d="M0 409v512h358v205h-358v512h512v-358h358v-512h-358v-359h-512z" />
    <glyph glyph-name="Euro" unicode="&#x20ac;" 
d="M819 0v409h-512v359h-307v512h307v358h512v410h717v-410h512v-512h-512v410h-717v-256h512v-512h-512v-256h717v409h512v-512h-512v-409h-717z" />
    </font>
</defs>
</svg>
